P3
4 4
255
250
0
0
250
0
0
0
250
0
0
250
0
250
0
0
250
0
0
0
250
0
0
250
0
0
250
0
0
250
0
250
0
0
250
0
0
0
250
0
0
250
0
250
0
0
250
0
0
